<svg width="284" height="101" viewBox="0 0 284 101" fill="none" xmlns="http://www.w3.org/2000/svg">
<rect x="38.9268" y="0.583496" width="29.4543" height="88.3629" rx="14.7272" transform="rotate(25.8975 38.9268 0.583496)" fill="#F18F01"/>
<rect x="89.4178" y="81.2251" width="29.4543" height="88.3629" rx="14.7272" transform="rotate(155.672 89.4178 81.2251)" fill="#FFA500"/>
<path d="M107.292 68.1877L113.891 44.4533C114.694 41.5609 116.516 40.1147 119.36 40.1147C122.277 40.1147 124.136 41.5609 124.938 44.4533L131.501 68.1877L138.355 43.6877C139.036 41.2814 140.47 40.0783 142.657 40.0783C143.435 40.0783 144.225 40.2606 145.027 40.6252C146.801 41.4515 147.688 42.7033 147.688 44.3804C147.688 44.9637 147.591 45.5592 147.397 46.1668L138.063 75.6616C137.091 78.7484 135.074 80.2918 132.011 80.2918C128.803 80.2918 126.713 78.5661 125.74 75.1147L119.397 52.7293L113.053 75.1147C112.081 78.5661 109.99 80.2918 106.782 80.2918C103.72 80.2918 101.702 78.7484 100.73 75.6616L91.3966 46.1668C91.2022 45.5349 91.105 44.9151 91.105 44.3075C91.105 42.7276 91.9435 41.5245 93.6206 40.6981C94.4956 40.2849 95.3463 40.0783 96.1727 40.0783C98.3359 40.0783 99.7577 41.2814 100.438 43.6877L107.292 68.1877ZM182.433 45.1825L182.652 42.8127C182.822 40.8196 184.122 39.8231 186.553 39.8231C188.497 39.8231 189.834 40.5644 190.563 42.047C190.806 42.5575 190.928 43.1286 190.928 43.7606V76.3179C190.928 77.1443 190.746 77.8734 190.381 78.5054C189.652 79.6963 188.437 80.2918 186.735 80.2918C184.378 80.2918 183.016 79.0644 182.652 76.6095L182.251 74.0939C179.845 78.4203 175.725 80.5835 169.891 80.5835C163.669 80.5835 158.881 78.08 155.527 73.0731C153.145 69.5245 151.954 65.2224 151.954 60.1668C151.954 55.3786 153.169 51.2102 155.6 47.6616C157.593 44.7206 160.169 42.5818 163.329 41.245C165.516 40.297 167.813 39.8231 170.22 39.8231C175.615 39.8231 179.687 41.6095 182.433 45.1825ZM181.667 60.7866V57.87C181.667 55.172 180.671 52.8144 178.678 50.797C176.661 48.7554 174.327 47.7345 171.678 47.7345C168.615 47.7345 166.148 49.0106 164.277 51.5627C162.624 53.8231 161.798 56.679 161.798 60.1304C161.798 63.0956 162.381 65.6356 163.548 67.7502C165.346 70.9828 168.032 72.5991 171.605 72.5991C173.817 72.5991 175.834 71.7606 177.657 70.0835C180.331 67.6286 181.667 64.5297 181.667 60.7866ZM220.095 39.6043C225.345 39.6043 229.501 41.1113 232.563 44.1252C234.143 45.6807 234.933 47.2484 234.933 48.8283C234.933 50.0193 234.447 51.0401 233.475 51.8908C232.6 52.6443 231.603 53.021 230.485 53.021C229.221 53.021 228.164 52.4984 227.313 51.4533C225.247 48.9255 222.817 47.6616 220.022 47.6616C216.838 47.6616 214.286 48.9984 212.365 51.672C210.737 53.9325 209.923 56.7519 209.923 60.1304C209.923 63.5575 210.846 66.4255 212.693 68.7345C214.735 71.2623 217.239 72.5262 220.204 72.5262C223.048 72.5262 225.624 71.08 227.933 68.1877C228.662 67.2397 229.598 66.7658 230.74 66.7658C231.81 66.7658 232.818 67.179 233.766 68.0054C234.86 68.929 235.407 70.12 235.407 71.5783C235.407 72.8665 234.848 74.1547 233.73 75.4429C230.667 78.9672 226.159 80.7293 220.204 80.7293C214.128 80.7293 209.218 78.712 205.475 74.6772C201.926 70.8613 200.152 65.9759 200.152 60.021C200.152 56.2293 200.99 52.7779 202.667 49.6668C205.292 44.7814 209.303 41.646 214.699 40.2606C216.424 39.8231 218.223 39.6043 220.095 39.6043ZM253.746 66.0366V76.245C253.746 77.4116 253.345 78.3474 252.542 79.0522C251.595 79.8786 250.428 80.2918 249.042 80.2918C247.001 80.2918 245.591 79.5505 244.813 78.0679C244.546 77.5331 244.412 76.9255 244.412 76.245V28.0835C244.412 27.1113 244.716 26.297 245.324 25.6408C246.223 24.6443 247.463 24.146 249.042 24.146C251.011 24.146 252.409 24.8265 253.235 26.1877C253.575 26.7467 253.746 27.3786 253.746 28.0835V55.2814L269.933 41.5366C271.027 40.613 272.157 40.1512 273.324 40.1512C274.417 40.1512 275.39 40.5644 276.24 41.3908C277.286 42.4359 277.808 43.5904 277.808 44.8543C277.808 46.1182 277.273 47.1755 276.204 48.0262L264.72 57.2137L278.1 71.9064C278.999 72.9272 279.449 74.0818 279.449 75.37C279.449 76.9012 278.878 78.0922 277.735 78.9429C276.641 79.7693 275.475 80.1825 274.235 80.1825C272.825 80.1825 271.622 79.5748 270.626 78.3595L257.938 62.646L253.746 66.0366Z" fill="#FFA500"/>
</svg>
