<svg width="87" height="87" viewBox="0 0 87 87" fill="none" xmlns="http://www.w3.org/2000/svg">
<path d="M36.4167 50.2499L75.8334 10.8333M36.4167 50.2499L48.9584 75.3333C49.1156 75.6763 49.368 75.967 49.6856 76.1709C50.0032 76.3747 50.3727 76.483 50.75 76.483C51.1274 76.483 51.4969 76.3747 51.8145 76.1709C52.1321 75.967 52.3845 75.6763 52.5417 75.3333L75.8334 10.8333M36.4167 50.2499L11.3334 37.7083C10.9903 37.551 10.6996 37.2986 10.4958 36.981C10.2919 36.6634 10.1836 36.294 10.1836 35.9166C10.1836 35.5392 10.2919 35.1698 10.4958 34.8522C10.6996 34.5345 10.9903 34.2821 11.3334 34.1249L75.8334 10.8333" stroke="#1B1E28" stroke-width="7.16667" stroke-linecap="round" stroke-linejoin="round"/>
</svg>
